<svg viewBox="0 0 512 512" xmlns="http://www.w3.org/2000/svg"><g id="Layer_2" data-name="Layer 2"><g id="Layer_1-2" data-name="Layer 1"><g id="_21" data-name="21"><path d="m512 256v.08 3.35q-.14 10.4-1.09 20.58-.39 4.13-.9 8.21-.45 3.57-1 7.09c-.5 3.25-1.06 6.49-1.69 9.7a255.95 255.95 0 0 1 -240.32 206.75c-3.63.16-7.29.24-11 .24a256.51 256.51 0 0 1 -61.69-7.49 256.18 256.18 0 0 1 -193.2-224.51q-1.11-11.85-1.11-24c0-141.38 114.62-256 256-256a255.68 255.68 0 0 1 209.82 109.31q4.24 6 8.12 12.33a254.38 254.38 0 0 1 37 111q.9 9.9 1 20c.06 1.15.06 2.26.06 3.36z" fill="#fed4d5"/><path d="m512 256v.08 3.35q-.14 10.4-1.09 20.58-.39 4.13-.9 8.21-.45 3.57-1 7.09c-.5 3.25-1.06 6.49-1.69 9.7h-235.85l3.53-23.01s.32-.73 1-2c4.76-9.39 27-48.52 64.93-45 43.09 4 72.49 34 109.79 21 4.75-1.66 9.56-3.4 14.34-5.17 8.42-3.11 16.74-6.34 24.45-9.4 8-3.18 15.32-6.19 21.45-8.75q.9 9.9 1 20c.04 1.11.04 2.22.04 3.32z" fill="#e38094"/><path d="m512 259.42q-.14 10.4-1.09 20.58-.39 4.13-.9 8.21l-1-.75q-2.47-1.86-4.91-3.76c-1.28-1-2.84-2.25-4.63-3.7-8.24-6.69-21.32-17.72-34.42-29.17-17.33-15.13-34.72-31-41.12-38.51-14.29-16.79-24.93-35.09-30.25-55.47-.06-.23-.16-.46-.3-.85a19.38 19.38 0 0 0 -5.2 6.94c-3.08 6.31-4.3 13.25-4.76 20.43-.7 11 .46 21.89 6 32.65a56.27 56.27 0 0 1 2.43 5.87 7.42 7.42 0 0 1 .27 1.76 8.54 8.54 0 0 1 -2-.11 22.17 22.17 0 0 1 -10.27-6.67 64.34 64.34 0 0 1 -16-31.44c-1.43-7.19-1-14.21-.46-21.2.05-.56.06-1.12.1-2.06-.43.51-.63.71-.78.94a109.51 109.51 0 0 0 -17.82 43.06c-.18 1-1.08 1.79-1.65 2.67a16.24 16.24 0 0 1 -2.5-2.22 45.45 45.45 0 0 1 -8.91-20.05c-2.84-16.83 1.51-31 12.35-42.64a9.41 9.41 0 0 0 .58-.8c-3.2.38-11.59 3.29-14.6 5.21a41 41 0 0 1 -10.16 5.18 2.06 2.06 0 0 1 -1.58-.46c-1.56-1.47-1.09-3.09-.68-4.57 2.4-8.71 6.6-16.29 13.9-21.74 9.8-7.33 21.11-11.35 34.74-10.14 4 .36 4.66-.25 5.11-4a53.89 53.89 0 0 1 .72-5.42 44.58 44.58 0 0 1 10.43-20.19 47.16 47.16 0 0 1 24.21-14.52 26.41 26.41 0 0 1 6.46-.53 4.7 4.7 0 0 1 3.83 1.94c-7.65 8.93-14 18.59-18 29.91h.34s.3-.24.44-.36c9-7.93 20.23-10.78 33.29-9.26 12.33 1.44 22.78 7.53 32.58 15.12q4.24 6 8.12 12.33a4.63 4.63 0 0 1 -.67 1.45c-2.7-1.08-5.26-2.22-7.88-3.14-13.1-4.6-26.12-6.48-39-3.9a35.63 35.63 0 0 0 -11.32 4.25h1.15c4.66 0 9.31-.29 14 .06a58.72 58.72 0 0 1 29.81 10.32c11.47 8 17.93 18.94 22.12 31.13a6.58 6.58 0 0 1 .22 3c-.26 1.64-1.23 1.85-2.59.61-2.36-2.16-4.67-4.39-7-6.62a60.32 60.32 0 0 0 -26.4-15.41 42.88 42.88 0 0 0 -19.54-.5c.83.35 1.35.52 1.82.77 3.45 1.82 7.12 3.34 10.3 5.56 12.73 8.91 19.46 20.88 22 34.8a16.29 16.29 0 0 1 0 4.93 3.66 3.66 0 0 1 -2.73 3.27c-.25-.4-.47-.72-.66-1a90 90 0 0 0 -31.21-31.33 52.88 52.88 0 0 0 -20.62-7.5 45.54 45.54 0 0 0 -5.26-.06l1.06 1.74c12.18 19.8 27.86 37 45.69 52.55 6.62 5.78 24.87 20.8 42.29 34.88 8.1 6.51 16.01 12.82 22.51 17.93z" fill="#d36216"/><path d="m510.89 280q-.39 4.13-.9 8.21-.45 3.57-1 7.09c-.5 3.25-1.06 6.49-1.69 9.7a255.95 255.95 0 0 1 -240.3 206.76c-3.63.16-7.29.24-11 .24a256.51 256.51 0 0 1 -61.69-7.49 256.18 256.18 0 0 1 -193.2-224.51z" fill="#00b1c1"/><path d="m510.89 280q-.39 4.13-.9 8.21-.45 3.57-1 7.09c-.5 3.25-1.06 6.49-1.69 9.7a255.95 255.95 0 0 1 -240.3 206.76c-3.63.16-7.29.24-11 .24a256.51 256.51 0 0 1 -61.69-7.49 256.18 256.18 0 0 1 -193.2-224.51z" fill="#00b1c1"/><path d="m510.89 280q-.39 4.13-.9 8.21-.45 3.57-1 7.09c-.5 3.25-1.06 6.49-1.69 9.7a255.95 255.95 0 0 1 -240.3 206.76c-3.63.16-7.29.24-11 .24a256.51 256.51 0 0 1 -61.69-7.49 255.25 255.25 0 0 1 -80.72-35.77 76.06 76.06 0 0 1 13.41-4.74c45-11 59-54 59-54s4-19 36-26 46.91-34 49-43c1.09-4.83 3.9-20.58 12.59-36 5.22-9.27 12.57-18.42 22.95-25z" fill="#2fc1c1"/><path d="m509 280v15.3c-.5 3.25-1.06 6.49-1.69 9.7a255.95 255.95 0 0 1 -240.31 206.76c-3.63.16-7.29.24-11 .24a256.51 256.51 0 0 1 -61.69-7.49 253.5 253.5 0 0 1 -41.56-14.21 143.41 143.41 0 0 1 25.9-12 58.23 58.23 0 0 0 32.35-25.86c10.69-18.33 29-41.25 54-42.44 42-2 13-37 35-79 7.08-13.53 9.19-20.72 10.07-26 1.31-7.79 0-11.41 8-25z" fill="#5fcbd5"/><path d="m510.89 280q-.39 4.13-.9 8.21-.45 3.57-1 7.09c-.5 3.25-1.06 6.49-1.69 9.7a255.95 255.95 0 0 1 -240.3 206.76c-3.63.16-7.29.24-11 .24a256.51 256.51 0 0 1 -61.69-7.49c28.74-25.59 78-66.11 119.57-83.74 63.12-26.77 50.8-58.77 23.46-74.77-10.65-6.23-8-22.94-.9-41a231.17 231.17 0 0 1 11.95-25z" fill="#fee5cf"/><path d="m510.89 280q-.39 4.13-.9 8.21-.45 3.57-1 7.09c-.5 3.25-1.06 6.49-1.69 9.7a255.95 255.95 0 0 1 -240.3 206.76c14.41-28.21 42.92-73.21 84.87-91 63.13-26.76 50.81-58.76 23.47-74.76-10.65-6.23-8-22.94-.9-41a231.17 231.17 0 0 1 11.95-25z" fill="#f9caa0"/><path d="m510.89 280q-.39 4.13-.9 8.21-.45 3.57-1 7.09c-.5 3.25-1.06 6.49-1.69 9.7a256.24 256.24 0 0 1 -118.72 170c6.73-18.17 19.56-35.91 43.42-46 63.15-26.77 28.68-67 1.34-83-10.65-6.23-8-22.94-.9-41a231.17 231.17 0 0 1 11.95-25z" fill="#fab371"/><g fill="#fff"><circle cx="202" cy="210.5" opacity=".29" r="54"/><circle cx="202" cy="210.5" r="44.87"/></g></g></g></g></svg>