<?xml version="1.0" standalone="no"?>
<!DOCTYPE svg PUBLIC "-//W3C//DTD SVG 20010904//EN"
 "http://www.w3.org/TR/2001/REC-SVG-20010904/DTD/svg10.dtd">
<svg version="1.0" xmlns="http://www.w3.org/2000/svg"
 width="700.000000pt" height="700.000000pt" viewBox="0 0 700.000000 700.000000"
 preserveAspectRatio="xMidYMid meet">
<metadata>
Created by potrace 1.14, written by Peter Selinger 2001-2017
</metadata>
<g transform="translate(0.000000,700.000000) scale(0.100000,-0.100000)"
fill="#000000" stroke="none">
<path d="M3278 6995 c-1 -1 -42 -5 -89 -9 -47 -4 -95 -8 -106 -10 -11 -3 -44
-7 -74 -11 -102 -12 -217 -34 -344 -67 -44 -11 -90 -22 -102 -24 -93 -17 -410
-138 -581 -221 -176 -85 -457 -253 -551 -329 -9 -7 -52 -41 -96 -75 -340 -264
-650 -624 -875 -1014 -47 -83 -170 -327 -170 -340 0 -3 -9 -24 -20 -48 -57
-123 -157 -435 -186 -582 -2 -11 -10 -54 -19 -95 -29 -147 -36 -200 -52 -370
-14 -156 -7 -636 11 -737 2 -10 7 -40 10 -68 112 -817 559 -1623 1201 -2166
559 -472 1248 -759 1972 -820 179 -15 585 -6 743 15 1085 150 1999 752 2562
1686 233 386 384 817 459 1310 24 162 35 586 19 750 -15 152 -21 208 -26 233
-2 11 -6 39 -9 62 -17 117 -79 374 -125 515 -175 529 -465 1003 -852 1390
-101 101 -154 150 -228 210 -30 25 -57 48 -60 51 -19 21 -266 198 -315 225
-11 6 -50 29 -86 52 -132 81 -316 171 -514 251 -11 5 -33 14 -50 21 -142 57
-513 155 -665 175 -19 3 -46 7 -60 10 -13 2 -52 7 -86 11 -33 3 -74 8 -90 10
-32 5 -540 14 -546 9z"/>
</g>
</svg>
