<?xml version="1.0" encoding="iso-8859-1"?>
<!-- Generator: Adobe Illustrator 19.0.0, SVG Export Plug-In . SVG Version: 6.00 Build 0)  -->
<svg version="1.1" id="Capa_1" xmlns="http://www.w3.org/2000/svg" xmlns:xlink="http://www.w3.org/1999/xlink" x="0px" y="0px"
	 viewBox="0 0 512 512" style="enable-background:new 0 0 512 512;" xml:space="preserve">
<path style="fill:#FCC96C;" d="M94.969,201.55c2.75,0,4.389-2.166,3.642-4.812l-16.517-58.547c-0.746-2.646-3.607-4.812-6.357-4.812
	H40.692c-2.75,0-5.611,2.165-6.357,4.812l-16.517,58.547c-0.747,2.646,0.892,4.812,3.642,4.812H94.969z"/>
<path style="opacity:0.1;enable-background:new    ;" d="M39.181,196.738l16.517-58.547c0.746-2.646,3.607-4.812,6.357-4.812H40.692
	c-2.75,0-5.611,2.165-6.357,4.812l-16.517,58.547c-0.747,2.646,0.892,4.812,3.642,4.812h21.363
	C40.073,201.55,38.434,199.385,39.181,196.738z"/>
<path style="fill:#ABCCD3;" d="M76.136,281.523v-21.881c0-2.75-2.25-5-5-5H45.294c-2.75,0-5,2.25-5,5v21.881H76.136z"/>
<path style="fill:#FCC96C;" d="M490.54,201.55c2.75,0,4.389-2.166,3.643-4.812l-16.518-58.548c-0.747-2.646-3.607-4.812-6.357-4.812
	h-35.045c-2.75,0-5.611,2.165-6.357,4.812l-16.517,58.548c-0.747,2.646,0.893,4.812,3.643,4.812H490.54z"/>
<path style="opacity:0.1;enable-background:new    ;" d="M436.181,196.738l16.517-58.548c0.746-2.646,3.607-4.812,6.357-4.812
	h-22.792c-2.75,0-5.611,2.165-6.357,4.812l-16.517,58.548c-0.747,2.646,0.893,4.812,3.643,4.812h22.792
	C437.073,201.55,435.434,199.385,436.181,196.738z"/>
<path style="fill:#ABCCD3;" d="M471.707,281.523v-21.882c0-2.75-2.25-5-5-5h-25.843c-2.75,0-5,2.25-5,5v21.882H471.707z"/>
<path style="fill:#FF9F3D;" d="M70.82,366.569c0-2.75,2.25-5,5-5h3.871v-26.815c0-8.25,6.75-15,15-15h13.831v-38.23H12.5
	c-2.75,0-5,2.25-5,5v90.355c0,2.75,2.25,5,5,5h58.32V366.569z"/>
<path style="opacity:0.1;enable-background:new    ;" d="M29.086,376.878v-90.355c0-2.75,2.25-5,5-5H12.5c-2.75,0-5,2.25-5,5v90.355
	c0,2.75,2.25,5,5,5h21.586C31.336,381.878,29.086,379.628,29.086,376.878z"/>
<path style="fill:#FFFFFF;" d="M94.69,319.753h13.831v-38.23H12.5c-2.75,0-5,2.25-5,5v34.425h81.343
	C90.643,320.18,92.619,319.753,94.69,319.753z"/>
<path style="fill:#FF9F3D;" d="M499.5,281.523h-96.021v38.23h13.83c8.25,0,15,6.75,15,15v26.815h3.871c2.75,0,5,2.25,5,5v15.31
	h58.32c2.75,0,5-2.25,5-5v-90.355C504.5,283.773,502.25,281.523,499.5,281.523z"/>
<path style="fill:#FFFFFF;" d="M499.5,281.523h-96.021v38.23h13.83c2.072,0,4.048,0.427,5.848,1.195H504.5v-34.425
	C504.5,283.773,502.25,281.523,499.5,281.523z"/>
<path style="fill:#FF9F3D;" d="M403.479,319.753v-65.487c0-2.75-2.25-5-5-5H113.521c-2.75,0-5,2.25-5,5v65.487H403.479z"/>
<path style="opacity:0.1;enable-background:new    ;" d="M132,249.266h-18.479c-2.75,0-5,2.25-5,5v65.487H127v-65.487
	C127,251.516,129.25,249.266,132,249.266z"/>
<g>
	<path style="fill:#FFFFFF;" d="M244.912,319.753v-18.452c0-8.25-6.75-15-15-15h-77.77c-8.25,0-15,6.75-15,15v18.452H244.912z"/>
	<path style="fill:#FFFFFF;" d="M377.975,319.753v-18.452c0-8.25-6.75-15-15-15h-77.77c-8.25,0-15,6.75-15,15v18.452H377.975z"/>
</g>
<path style="fill:#FFCFAB;" d="M432.31,361.569v-26.815c0-8.25-6.75-15-15-15H94.69c-8.25,0-15,6.75-15,15v26.815H432.31z"/>
<path style="opacity:0.1;enable-background:new    ;" d="M107,361.569v-26.815c0-8.25,6.75-15,15-15H94.69c-8.25,0-15,6.75-15,15
	v26.815H107z"/>
<path style="fill:#FF9F3D;" d="M110.175,442.809c2.75,0,5-2.25,5-5v-26.638c0-2.75,2.25-5,5-5h271.651c2.75,0,5,2.25,5,5v26.638
	c0,2.75,2.25,5,5,5h34.355c2.75,0,5-2.25,5-5v-71.24c0-2.75-2.25-5-5-5H75.82c-2.75,0-5,2.25-5,5v71.24c0,2.75,2.25,5,5,5H110.175z"
	/>
<g style="opacity:0.1;">
	<path d="M92.639,437.809v-71.24c0-2.75,2.25-5,5-5H75.82c-2.75,0-5,2.25-5,5v71.24c0,2.75,2.25,5,5,5h21.819
		C94.889,442.809,92.639,440.559,92.639,437.809z"/>
</g>
<path style="fill:#B1E8FF;" d="M367.108,185.399c0,2.75-2.25,5-5,5H149.892c-2.75,0-5-2.25-5-5V74.191c0-2.75,2.25-5,5-5h212.216
	c2.75,0,5,2.25,5,5V185.399z"/>
<path style="opacity:0.1;enable-background:new    ;" d="M166.784,185.399V74.191c0-2.75,2.25-5,5-5h-21.892c-2.75,0-5,2.25-5,5
	v111.208c0,2.75,2.25,5,5,5h21.892C169.034,190.399,166.784,188.149,166.784,185.399z"/>
<g>
	<path style="fill:#86D5B5;" d="M260.595,190.399h101.514c2.75,0,5-2.25,5-5v-8.184l-49.452-85.652L260.595,190.399z"/>
	<polygon style="fill:#86D5B5;" points="250.494,108.29 203.088,190.399 260.595,190.399 279.248,158.091 	"/>
</g>
<circle style="fill:#FFFFFF;" cx="192.68" cy="110.68" r="17.921"/>
<path d="M62.46,293.14c-1.98,0-3.91,0.8-5.31,2.191c-1.39,1.4-2.19,3.33-2.19,5.309c0,1.97,0.8,3.91,2.19,5.3
	c1.4,1.4,3.33,2.2,5.31,2.2c1.97,0,3.9-0.8,5.3-2.2c1.4-1.39,2.2-3.33,2.2-5.3c0-1.98-0.8-3.91-2.2-5.309
	C66.36,293.94,64.43,293.14,62.46,293.14z"/>
<path d="M499.5,274.023h-20.293v-14.382c0-6.893-5.607-12.5-12.5-12.5h-5.422V209.05h29.255c3.681,0,7.002-1.599,9.113-4.387
	c2.11-2.788,2.748-6.419,1.748-9.961l-16.518-58.547c-1.652-5.858-7.489-10.276-13.576-10.276h-35.045
	c-6.087,0-11.923,4.417-13.576,10.276l-16.517,58.548c-0.999,3.542-0.362,7.173,1.748,9.961s5.432,4.387,9.113,4.387h29.254v38.091
	h-5.421c-6.893,0-12.5,5.607-12.5,12.5v14.382h-17.385v-19.757c0-6.893-5.607-12.5-12.5-12.5H196c-4.142,0-7.5,3.358-7.5,7.5
	s3.358,7.5,7.5,7.5h199.979v55.487h-10.505v-10.952c0-12.407-10.093-22.5-22.5-22.5h-77.77c-12.407,0-22.5,10.093-22.5,22.5v10.952
	h-10.293v-10.952c0-12.407-10.093-22.5-22.5-22.5h-77.77c-12.407,0-22.5,10.093-22.5,22.5v10.952h-13.62v-55.487h45.978
	c4.142,0,7.5-3.358,7.5-7.5s-3.358-7.5-7.5-7.5h-48.478c-6.893,0-12.5,5.607-12.5,12.5v19.757H83.636v-14.381
	c0-6.893-5.607-12.5-12.5-12.5h-5.421V209.05h29.254c3.681,0,7.002-1.599,9.113-4.387c2.11-2.788,2.748-6.419,1.748-9.961
	l-16.517-58.547c-1.652-5.858-7.489-10.276-13.576-10.276H40.692c-6.087,0-11.923,4.417-13.576,10.276L10.6,194.702
	c-0.999,3.542-0.362,7.173,1.748,9.961s5.432,4.387,9.113,4.387h29.254v38.092h-5.42c-6.893,0-12.5,5.607-12.5,12.5v14.381H12.5
	c-6.893,0-12.5,5.607-12.5,12.5v34.425v55.93c0,6.893,5.607,12.5,12.5,12.5h50.82v48.431c0,6.893,5.607,12.5,12.5,12.5h34.355
	c6.893,0,12.5-5.607,12.5-12.5v-24.138H309c4.142,0,7.5-3.358,7.5-7.5s-3.358-7.5-7.5-7.5H120.175c-6.893,0-12.5,5.607-12.5,12.5
	v24.138H78.32v-66.24h355.361v66.24h-29.355v-24.138c0-6.893-5.607-12.5-12.5-12.5H345c-4.142,0-7.5,3.358-7.5,7.5
	s3.358,7.5,7.5,7.5h44.326v24.138c0,6.893,5.607,12.5,12.5,12.5h34.355c6.892,0,12.5-5.607,12.5-12.5v-48.431H499.5
	c6.893,0,12.5-5.607,12.5-12.5v-90.355C512,279.631,506.393,274.023,499.5,274.023z M421.939,194.05l15-53.172h33.691l15.001,53.172
	H421.939z M443.364,262.142h20.843v11.284h-20.843V262.142z M277.705,301.302c0-4.136,3.365-7.5,7.5-7.5h77.77
	c4.136,0,7.5,3.364,7.5,7.5v10.952h-92.77V301.302z M144.641,301.302c0-4.136,3.365-7.5,7.5-7.5h77.77c4.135,0,7.5,3.364,7.5,7.5
	v10.952h-92.77L144.641,301.302L144.641,301.302z M26.369,194.05l15-53.171h33.69L90.06,194.05H26.369z M47.794,262.142h20.842
	v11.284H47.794V262.142z M72.19,334.753v19.857c-5.127,1.559-8.871,6.328-8.871,11.958v7.81H15v-45.93h58.096
	C72.51,330.45,72.19,332.564,72.19,334.753z M15,313.448v-24.425h86.021v23.23H94.69c-2.525,0-4.951,0.424-7.219,1.195L15,313.448
	L15,313.448z M424.81,354.069H87.19v-19.315c0-4.135,3.365-7.5,7.5-7.5h322.62c4.135,0,7.5,3.365,7.5,7.5V354.069z M497,374.378
	h-48.319v-7.81c0-5.63-3.743-10.399-8.871-11.958v-19.857c0-2.189-0.32-4.303-0.906-6.305H497V374.378z M497,313.448h-72.471
	c-2.268-0.771-4.694-1.195-7.219-1.195h-6.33v-23.23H497V313.448z"/>
<path d="M449.54,308.14c1.98,0,3.91-0.8,5.31-2.2c1.39-1.4,2.19-3.33,2.19-5.3s-0.8-3.91-2.19-5.3c-1.4-1.4-3.33-2.2-5.31-2.2
	c-1.97,0-3.9,0.8-5.3,2.2c-1.4,1.39-2.2,3.32-2.2,5.3c0,1.97,0.8,3.9,2.2,5.3C445.63,307.34,447.57,308.14,449.54,308.14z"/>
<path d="M149.892,197.899h212.216c6.893,0,12.5-5.607,12.5-12.5V128c0-4.142-3.358-7.5-7.5-7.5s-7.5,3.358-7.5,7.5v21.226
	l-35.457-61.412c-1.34-2.32-3.816-3.75-6.495-3.75c-2.68,0-5.155,1.43-6.495,3.75l-31.914,55.278l-22.258-38.552
	c-0.011-0.019-0.025-0.035-0.036-0.054c-0.635-1.081-1.546-2.02-2.709-2.691c-3.588-2.072-8.174-0.842-10.245,2.745l-45.241,78.36
	h-46.366V76.691h207.216V94c0,4.142,3.358,7.5,7.5,7.5s7.5-3.358,7.5-7.5V74.191c0-6.893-5.607-12.5-12.5-12.5H149.892
	c-6.893,0-12.5,5.607-12.5,12.5v111.208C137.392,192.292,142.999,197.899,149.892,197.899z M317.656,106.564l41.952,72.662v3.674
	h-86.023L317.656,106.564z M250.494,123.29l20.093,34.802L256.264,182.9h-40.186L250.494,123.29z"/>
<path d="M167.26,110.68c0,14.017,11.404,25.42,25.421,25.42s25.42-11.403,25.42-25.42c0-14.018-11.403-25.421-25.42-25.421
	C178.664,85.258,167.26,96.662,167.26,110.68z M203.101,110.68c0,5.746-4.675,10.42-10.42,10.42c-5.746,0-10.421-4.675-10.421-10.42
	c0-5.747,4.675-10.421,10.421-10.421C198.426,100.258,203.101,104.933,203.101,110.68z"/>
<g>
</g>
<g>
</g>
<g>
</g>
<g>
</g>
<g>
</g>
<g>
</g>
<g>
</g>
<g>
</g>
<g>
</g>
<g>
</g>
<g>
</g>
<g>
</g>
<g>
</g>
<g>
</g>
<g>
</g>
</svg>
