<svg height="512pt" viewBox="0 -12 512 512" width="512pt" xmlns="http://www.w3.org/2000/svg"><path d="m7.5 232.933594h497v27.90625h-497zm0 0" fill="#d68376"/><path d="m477.671875 232.933594h26.828125v27.90625h-26.828125zm0 0" fill="#a65d51"/><path d="m7.5 260.839844v210.65625c0 5.523437 4.476562 10 10 10h477c5.523438 0 10-4.476563 10-10v-210.65625zm0 0" fill="#aabfd5"/><path d="m361 329.136719h143.5v142.359375c0 5.523437-4.476562 10-10 10h-133.5zm0 0" fill="#fed89b"/><path d="m477.671875 260.839844v210.65625c0 5.523437-4.476563 10-10 10h26.828125c5.523438 0 10-4.476563 10-10v-210.65625zm0 0" fill="#e2b074"/><path d="m7.5 329.136719h143.5v152.359375h-133.5c-5.523438 0-10-4.476563-10-10zm0 0" fill="#fed89b"/><path d="m151 329.136719h210v152.359375h-210zm0 0" fill="#cae5ed"/><path d="m361 260.839844h143.5v68.296875h-143.5zm0 0" fill="#f0f2dc"/><path d="m477.671875 260.839844h26.828125v68.296875h-26.828125zm0 0" fill="#ccc5a9"/><path d="m7.5 260.839844h143.5v68.296875h-143.5zm0 0" fill="#f0f2dc"/><path d="m222.304688 293.996094c0 6.742187-5.464844 12.203125-12.203126 12.203125-6.738281 0-12.203124-5.460938-12.203124-12.203125 0-6.738282 5.464843-12.199219 12.203124-12.199219 6.738282 0 12.203126 5.460937 12.203126 12.199219zm0 0" fill="#596e99"/><path d="m314.101562 293.996094c0 6.742187-5.464843 12.203125-12.203124 12.203125-6.738282 0-12.203126-5.460938-12.203126-12.203125 0-6.738282 5.464844-12.199219 12.203126-12.199219 6.738281 0 12.203124 5.460937 12.203124 12.199219zm0 0" fill="#596e99"/><path d="m473.078125 161.234375v-20.832031c0-2.761719-2.238281-5-5-5h-8.136719c-2.761718 0-5 2.238281-5 5v20.832031l-6.96875 8.761719c-4.070312 5.121094-6.285156 11.46875-6.285156 18.007812v44.929688h44.644531v-44.929688c0-6.539062-2.214843-12.886718-6.285156-18.007812zm0 0" fill="#8fc264"/><path d="m404.738281 180.234375v-20.832031c0-2.761719-2.238281-5-5-5h-8.136719c-2.761718 0-5 2.238281-5 5v20.832031l-6.96875 8.761719c-4.070312 5.121094-6.285156 11.46875-6.285156 18.007812v25.929688h44.644532v-25.929688c0-6.539062-2.214844-12.886718-6.289063-18.007812zm0 0" fill="#ffe266"/><path d="m289.695312 33.054688v-25.554688h-67.390624v25.554688c0 1.84375-1.015626 3.539062-2.644532 4.410156l-68.660156 36.703125v23.332031c0 2.761719 2.238281 5 5 5h200c2.761719 0 5-2.238281 5-5v-23.332031l-68.660156-36.703125c-1.628906-.871094-2.644532-2.566406-2.644532-4.410156zm0 0" fill="#aabfd5"/><path d="m292.339844 37.464844c-1.628906-.871094-2.644532-2.566406-2.644532-4.410156v-25.554688h-33.5v25.554688c0 1.84375 1.015626 3.539062 2.644532 4.410156l68.660156 36.703125v23.332031c0 2.761719-2.238281 5-5 5h33.5c2.761719 0 5-2.238281 5-5v-23.332031zm0 0" fill="#7d8eb0"/><path d="m156 102.5h200c2.761719 0 5-2.238281 5-5v-23.332031h-210v23.332031c0 2.761719 2.238281 5 5 5zm0 0" fill="#596e99"/><path d="m327.5 97.5c0 2.761719-2.238281 5-5 5 32.898438-.546875 34.195312 1.179688 36.90625-1.359375.980469-.914063 1.59375-2.292969 1.59375-3.640625v-23.332031h-33.5zm0 0" fill="#3a4d7b"/><path d="m179 448.816406v-87c0-2.761718 2.238281-5 5-5h144c2.761719 0 5 2.238282 5 5v87c0 2.761719-2.238281 5-5 5h-144c-2.761719 0-5-2.238281-5-5zm0 0" fill="#56a6e8"/><path d="m504.5 225.433594h-10.667969v-37.429688c0-8.203125-2.8125-16.257812-7.917969-22.675781l-5.335937-6.710937v-18.214844c0-6.894532-5.605469-12.5-12.5-12.5h-8.136719c-6.894531 0-12.5 5.605468-12.5 12.5v18.214844l-5.339844 6.710937c-5.105468 6.417969-7.914062 14.472656-7.914062 22.675781v37.429688h-8.695312v-18.429688c0-8.203125-2.8125-16.253906-7.917969-22.675781l-5.335938-6.710937v-18.214844c0-6.894532-5.605469-12.5-12.5-12.5h-8.136719c-6.894531 0-12.5 5.605468-12.5 12.5v18.214844l-5.339843 6.710937c-5.105469 6.421875-7.917969 14.476563-7.917969 22.675781v18.429688h-26.34375v-2.929688c0-9.0625-7.371094-16.433594-16.433594-16.433594h-12.628906c-4.144531 0-7.5 3.359376-7.5 7.5 0 4.140626 3.355469 7.5 7.5 7.5h12.628906c.789063 0 1.433594.644532 1.433594 1.433594v2.929688h-61v-11.863282c0-4.140624-3.355469-7.5-7.5-7.5s-7.5 3.359376-7.5 7.5v11.863282h-61.003906v-2.929688c0-.789062.644531-1.433594 1.4375-1.433594h12.628906c4.144531 0 7.5-3.359374 7.5-7.5 0-4.140624-3.355469-7.5-7.5-7.5h-12.628906c-9.0625 0-16.4375 7.371094-16.4375 16.433594v2.929688h-115.996094v-50.863282c0-7.8125 6.355469-14.167968 14.167969-14.167968s14.164062 6.355468 14.164062 14.167968v25.363282c0 4.140625 3.359375 7.5 7.5 7.5 4.144531 0 7.5-3.359375 7.5-7.5v-25.363282c0-16.082031-13.082031-29.167968-29.164062-29.167968s-29.167969 13.085937-29.167969 29.167968v26.167969h-9.167969c-4.140625 0-7.5 3.355469-7.5 7.5 0 4.140625 3.359375 7.5 7.5 7.5h9.167969v9.695313h-34c-4.144531 0-7.5 3.355468-7.5 7.5v123.234375c0 4.140625 3.355469 7.5 7.5 7.5s7.5-3.359375 7.5-7.5v-19.53125h128.5v137.359375h-126c-1.378906 0-2.5-1.121094-2.5-2.5v-85.328125c0-4.144531-3.355469-7.5-7.5-7.5s-7.5 3.355469-7.5 7.5v85.328125c0 9.648437 7.851562 17.5 17.5 17.5h477c9.648438 0 17.5-7.851563 17.5-17.5v-85.328125c0-4.144531-3.355469-7.5-7.5-7.5s-7.5 3.355469-7.5 7.5v85.328125c0 1.378906-1.121094 2.5-2.5 2.5h-126v-137.359375h128.5v19.53125c0 4.140625 3.355469 7.5 7.5 7.5s7.5-3.359375 7.5-7.5v-123.234375c0-4.144532-3.355469-7.5-7.5-7.5zm-55.3125-37.429688c0-4.824218 1.652344-9.5625 4.65625-13.339844l6.96875-8.761718c1.054688-1.324219 1.628906-2.972656 1.628906-4.667969v-18.332031h3.136719v18.332031c0 1.699219.574219 3.34375 1.632813 4.667969l6.964843 8.761718c3.003907 3.777344 4.660157 8.515626 4.660157 13.339844v37.429688h-29.648438zm-68.339844 19c0-4.824218 1.652344-9.5625 4.65625-13.339844l6.96875-8.761718c1.054688-1.324219 1.628906-2.972656 1.628906-4.667969v-18.332031h3.136719v18.332031c0 1.695313.574219 3.34375 1.628907 4.667969l6.96875 8.761718c3.003906 3.777344 4.65625 8.515626 4.65625 13.339844v18.429688h-29.644532zm-365.847656 33.429688h482v12.90625h-482zm338.5 27.90625v53.296875h-195v-53.296875zm-338.5 53.296875v-53.296875h128.5v53.296875zm338.5 152.359375h-195v-137.359375h195zm15-152.359375v-53.296875h128.5v53.296875zm0 0"/><path d="m210.101562 313.699219c10.863282 0 19.703126-8.835938 19.703126-19.703125 0-10.863282-8.839844-19.699219-19.703126-19.699219-10.863281 0-19.703124 8.835937-19.703124 19.699219 0 10.867187 8.839843 19.703125 19.703124 19.703125zm0-24.402344c2.59375 0 4.703126 2.109375 4.703126 4.699219 0 2.59375-2.109376 4.703125-4.703126 4.703125s-4.703124-2.109375-4.703124-4.703125c0-2.589844 2.109374-4.699219 4.703124-4.699219zm0 0"/><path d="m301.898438 313.699219c10.863281 0 19.703124-8.835938 19.703124-19.703125 0-10.863282-8.839843-19.699219-19.703124-19.699219-10.863282 0-19.703126 8.835937-19.703126 19.699219 0 10.867187 8.839844 19.703125 19.703126 19.703125zm0-24.402344c2.59375 0 4.703124 2.109375 4.703124 4.699219 0 2.59375-2.109374 4.703125-4.703124 4.703125s-4.703126-2.109375-4.703126-4.703125c0-2.589844 2.109376-4.699219 4.703126-4.699219zm0 0"/><path d="m156 110h200c6.894531 0 12.5-5.605469 12.5-12.5v-23.335938c0-.054687 0-.109374-.003906-.167968 0-.015625 0-.03125 0-.050782 0-.042968-.003906-.085937-.003906-.128906 0-.027344-.003907-.054687-.003907-.082031-.003906-.035156-.003906-.070313-.007812-.105469 0-.027344-.003907-.058594-.007813-.089844 0-.015624 0-.03125-.003906-.050781-.128906-1.457031-.675781-2.796875-1.523438-3.894531-.003906-.003906-.003906-.007812-.007812-.011719-.023438-.027343-.046875-.058593-.070312-.085937-.007813-.011719-.015626-.023438-.023438-.03125-.035156-.042969-.070312-.085938-.105469-.128906-.015625-.019532-.027343-.035157-.042969-.050782-.015624-.019531-.035156-.039062-.050781-.058594-.023437-.027343-.042969-.050781-.066406-.074218-.011719-.015625-.023437-.027344-.035156-.042969-.035157-.035156-.066407-.070313-.101563-.105469-.011718-.015625-.023437-.027344-.035156-.039062-.027344-.027344-.054688-.054688-.082031-.082032-.011719-.011718-.019531-.023437-.03125-.035156-.035157-.035156-.074219-.074218-.109375-.109375-.011719-.007812-.019532-.015625-.03125-.023437-.027344-.027344-.054688-.054688-.085938-.082032-.015625-.015624-.03125-.027343-.046875-.042968-.023437-.019532-.050781-.042969-.074219-.066406-.023437-.019532-.050781-.042969-.078124-.0625-.023438-.023438-.046876-.042969-.070313-.0625-.023437-.019532-.046875-.039063-.070313-.058594-.011718-.007813-.023437-.019532-.039062-.03125-.398438-.320313-.832031-.601563-1.292969-.835938l-67.199219-35.917968v-24.054688c0-4.140625-3.355468-7.5-7.5-7.5-4.144531 0-7.5 3.359375-7.5 7.5v25.554688c0 4.621093 2.53125 8.84375 6.605469 11.023437l42.257813 22.585937h-150.117188l42.253906-22.585937c4.078126-2.179687 6.609376-6.402344 6.609376-11.023437v-25.554688c0-4.140625-3.359376-7.5-7.5-7.5-4.144532 0-7.5 3.359375-7.5 7.5v24.054688l-67.199219 35.921874c-.460938.234376-.894531.515626-1.296875.835938-.011719.011719-.023438.019531-.035156.03125-.027344.019531-.050782.039062-.074219.058594-.023438.019531-.046875.039062-.070313.058594-.023437.023437-.050781.042968-.074218.066406-.027344.023437-.050782.042968-.074219.066406-.015625.015625-.03125.027344-.046875.042969-.03125.027343-.058594.054687-.089844.082031-.007812.007812-.019531.015625-.027344.023438-.035156.035156-.074218.074218-.109375.109374-.011719.011719-.023437.019532-.03125.03125-.027343.027344-.054687.058594-.082031.085938-.011719.011719-.023438.023438-.035156.035156-.035156.035156-.070313.074219-.101563.109375-.011719.015625-.023437.027344-.035156.042969-.023437.023438-.046875.046875-.066406.074219-.015625.015625-.035157.035156-.050781.054687-.015626.019532-.027344.035156-.042969.054688-.035157.039062-.070313.082031-.105469.125-.007812.011718-.015625.023437-.027344.035156-.023437.027344-.042968.058594-.066406.085938-.003906.003906-.007812.007812-.007812.011718-.847657 1.097656-1.394532 2.433594-1.527344 3.894532 0 .015624 0 .035156-.003906.050781 0 .03125-.003907.058593-.003907.089843-.003906.035157-.007812.070313-.007812.105469 0 .027344-.003907.054688-.003907.078125-.003906.042969-.003906.089844-.003906.132813 0 .015625-.003906.035156-.003906.050781v.167969 23.335937c0 6.890625 5.605469 12.496094 12.5 12.496094zm197.5-15h-195v-13.335938h195zm0 0"/><path d="m451 280.203125h-36.5c-4.144531 0-7.5 3.355469-7.5 7.5 0 4.140625 3.355469 7.5 7.5 7.5h36.5c4.144531 0 7.5-3.359375 7.5-7.5 0-4.144531-3.355469-7.5-7.5-7.5zm0 0"/><path d="m97.5 280.203125h-36.5c-4.144531 0-7.5 3.355469-7.5 7.5 0 4.140625 3.355469 7.5 7.5 7.5h36.5c4.144531 0 7.5-3.359375 7.5-7.5 0-4.144531-3.355469-7.5-7.5-7.5zm0 0"/><path d="m378 383.375v31.457031c0 4.144531 3.355469 7.5 7.5 7.5s7.5-3.355469 7.5-7.5v-31.457031c0-4.144531-3.355469-7.5-7.5-7.5s-7.5 3.355469-7.5 7.5zm0 0"/><path d="m134 414.832031v-31.457031c0-4.144531-3.355469-7.5-7.5-7.5s-7.5 3.355469-7.5 7.5v31.457031c0 4.144531 3.355469 7.5 7.5 7.5s7.5-3.355469 7.5-7.5zm0 0"/><path d="m184 461.316406h144c6.894531 0 12.5-5.605468 12.5-12.5v-87c0-6.890625-5.605469-12.5-12.5-12.5h-144c-6.894531 0-12.5 5.609375-12.5 12.5v87c0 6.894532 5.605469 12.5 12.5 12.5zm2.5-97h139v82h-139zm0 0"/></svg>