<svg id="Capa_1" enable-background="new 0 0 512.013 512.013" height="512" viewBox="0 0 512.013 512.013" width="512" xmlns="http://www.w3.org/2000/svg"><g><g><path d="m136.007 452.007h-90c-8.291 0-15-6.709-15-15s6.709-15 15-15h90c8.291 0 15 6.709 15 15s-6.709 15-15 15z" fill="#995a4d"/></g><g><path d="m466.007 452.007h-90c-8.291 0-15-6.709-15-15s6.709-15 15-15h90c8.291 0 15 6.709 15 15s-6.709 15-15 15z" fill="#804540"/></g><g><path d="m271.007 135.007v182c0 8.399-6.599 15-15 15s-15-6.601-15-15v-182c0-8.401 6.599-15 15-15 8.4 0 15 6.599 15 15z" fill="#ecf2ff"/></g><path d="m271.007 135.007v182c0 8.399-6.599 15-15 15v-212c8.4 0 15 6.599 15 15z" fill="#d9e5ff"/><g><path d="m271.007 377.007v120c0 8.399-6.599 15-15 15s-15-6.601-15-15v-120c0-8.401 6.599-15 15-15 8.4 0 15 6.599 15 15z" fill="#995a4d"/></g><path d="m271.007 377.007v120c0 8.399-6.599 15-15 15v-150c8.4 0 15 6.599 15 15z" fill="#804540"/><path d="m331.007 317.007c0 41.4-33.6 75-75 75s-75-33.6-75-75z" fill="#995a4d"/><path d="m256.007 392.007v-75h75c0 41.4-33.6 75-75 75z" fill="#804540"/><path d="m106.007 362.007h-48.296l-28.159-108.633c-2.007-8.042-10.166-12.979-18.179-10.913-8.042 2.007-12.935 10.151-10.913 18.179l30.546 118.213v118.154c0 8.291 6.709 15 15 15s15-6.709 15-15v-105h45c8.276 0 15 6.724 15 15v90c0 8.291 6.709 15 15 15s15-6.709 15-15v-90c.001-24.815-20.185-45-44.999-45z" fill="#b37059"/><path d="m500.639 242.461c-8.042-2.095-16.187 2.871-18.179 10.913l-28.158 108.633h-48.296c-24.814 0-45 20.186-45 45v90c0 8.291 6.709 15 15 15s15-6.709 15-15v-90c0-8.276 6.724-15 15-15h45v105c0 8.291 6.709 15 15 15s15-6.709 15-15v-118.155l30.546-118.213c2.022-8.027-2.871-16.172-10.913-18.178z" fill="#995a4d"/><path d="m8.298 121.589c-6.226 3.105-9.492 10.093-7.896 16.86s7.646 11.558 14.604 11.558h120.934l71.816-54.875 41.124-93.335z" fill="#ff3535"/><path d="m503.715 121.589-240.58-119.792 53.477 109.552 59.456 38.657h120.94c6.958 0 13.008-4.79 14.604-11.558 1.596-6.767-1.671-13.754-7.897-16.859z" fill="#ca3044"/><g><path d="m331.007 497.007c0 8.399-6.599 15-15 15h-120c-8.401 0-15-6.601-15-15 0-8.401 6.599-15 15-15h120c8.4 0 15 6.599 15 15z" fill="#ffe666"/></g><path d="m331.007 497.007c0 8.399-6.599 15-15 15h-60v-30h60c8.4 0 15 6.599 15 15z" fill="#fc6"/><g><path d="m391.007 317.007c0 8.399-6.599 15-15 15h-240c-8.401 0-15-6.601-15-15 0-8.401 6.599-15 15-15h240c8.4 0 15 6.599 15 15z" fill="#ffe666"/></g><path d="m391.007 317.007c0 8.399-6.599 15-15 15h-120v-30h120c8.4 0 15 6.599 15 15z" fill="#fc6"/><path d="m268.004 5.675c-1.289-1.723-3.016-2.941-4.869-3.878-3.007-1.115-3.615-1.791-7.128-1.791-3.367 0-4.017.637-7.126 1.791-1.853.937-3.582 2.155-4.871 3.878l-108.069 144.332h240.126z" fill="#ff7e42"/><path d="m268.004 5.675c-1.289-1.723-3.016-2.941-4.869-3.878-3.007-1.115-3.615-1.791-7.128-1.791v150h120.06z" fill="#ff3535"/></g></svg>