<?xml version="1.0" encoding="UTF-8" standalone="no"?>
<!-- Created with Inkscape (http://www.inkscape.org/) -->

<svg
   version="1.1"
   id="svg2121"
   xml:space="preserve"
   width="682.66669"
   height="682.66669"
   viewBox="0 0 682.66669 682.66669"
   xmlns="http://www.w3.org/2000/svg"
   xmlns:svg="http://www.w3.org/2000/svg"><defs
     id="defs2125"><clipPath
       clipPathUnits="userSpaceOnUse"
       id="clipPath2139"><path
         d="M 0,512 H 512 V 0 H 0 Z"
         id="path2137" /></clipPath></defs><g
     id="g2127"
     transform="matrix(1.3333333,0,0,-1.3333333,0,682.66667)"><g
       id="g2129"
       transform="translate(7.5005,184.9883)"><path
         d="M 0,0 H 496.999 V -177.488 H -0.1 Z"
         style="fill:#5ed8f6;fill-opacity:1;fill-rule:nonzero;stroke:none"
         id="path2131" /></g><g
       id="g2133"><g
         id="g2135"
         clip-path="url(#clipPath2139)"><g
           id="g2141"
           transform="translate(7.4004,105.75)"><path
             d="m 0,0 c 30.333,41.318 88.599,59.65 137.158,43.156 57.347,-19.481 98.373,-80.6 158.87,-83.584 28.042,-1.384 54.774,10.438 81.275,19.7 26.501,9.262 75.26,25.05 119.639,-12.195 V -98.25 H 0 Z"
             style="fill:#ffd686;fill-opacity:1;fill-rule:nonzero;stroke:none"
             id="path2143" /></g><g
           id="g2145"
           transform="translate(104.5576,148.9058)"><path
             d="m 0,0 c 57.348,-19.48 98.374,-80.6 158.871,-83.584 8.483,-0.418 16.845,0.377 25.117,1.938 C 131.353,-70.596 92.52,-17.841 40,0 21.57,6.26 1.743,7.493 -17.426,4.367 -11.525,3.371 -5.694,1.934 0,0"
             style="fill:#f7ca6d;fill-opacity:1;fill-rule:nonzero;stroke:none"
             id="path2147" /></g><g
           id="g2149"
           transform="translate(419.5425,94.585)"><path
             d="M 0,0 C 0.147,-0.029 0.295,-0.058 0.443,-0.086 26.298,-5.188 44.8,-28.092 44.8,-54.446 v -32.639 h 40 v 65.326 C 55.943,2.459 25.237,4.253 0,0"
             style="fill:#f7ca6d;fill-opacity:1;fill-rule:nonzero;stroke:none"
             id="path2151" /></g><g
           id="g2153"
           transform="translate(352.8896,288.5591)"><path
             d="M 0,0 C -3.105,18.882 -20.929,31.673 -39.812,28.568 -58.694,25.464 -71.485,7.64 -68.38,-11.243 -71.485,7.64 -89.309,20.43 -108.192,17.326 c -18.882,-3.105 -31.673,-20.93 -28.568,-39.812 -3.105,18.882 -20.929,31.673 -39.812,28.569 -18.883,-3.105 -31.673,-20.929 -28.569,-39.812 -3.104,18.883 -20.928,31.673 -39.811,28.568 -18.882,-3.104 -31.673,-20.928 -28.569,-39.811 -3.104,18.883 -20.928,31.673 -39.811,28.569 -18.883,-3.105 -31.673,-20.929 -28.568,-39.812 l -1.16,-0.191 c -15.574,94.719 48.586,184.129 143.305,199.703 C -105.036,158.87 -15.626,94.71 -0.053,-0.009 Z"
             style="fill:#fe75a7;fill-opacity:1;fill-rule:nonzero;stroke:none"
             id="path2155" /></g><g
           id="g2157"
           transform="translate(352.8896,288.5591)"><path
             d="m 0,0 c -0.124,0.751 -0.279,1.49 -0.448,2.222 0.132,-0.744 0.273,-1.483 0.395,-2.231 z"
             style="fill:#fe5995;fill-opacity:1;fill-rule:nonzero;stroke:none"
             id="path2159" /></g><g
           id="g2161"
           transform="translate(161.5176,433.0234)"><path
             d="m 0,0 c 66.256,-7.712 123.363,-53.324 144.732,-117.745 2.166,0.831 4.449,1.458 6.829,1.849 18.13,2.981 35.277,-8.696 39.363,-26.347 C 174.816,-51.538 90.812,10.495 0,0"
             style="fill:#fe5995;fill-opacity:1;fill-rule:nonzero;stroke:none"
             id="path2163" /></g><g
           id="g2165"
           transform="translate(153.2002,431.8657)"><path
             d="m 0,0 c -0.017,-0.003 -0.033,-0.005 -0.049,-0.007 -55.457,-9.127 -88.524,-90.158 -75.276,-182.44 0.652,-1.868 1.162,-3.812 1.494,-5.832 -3.105,18.883 9.686,35.707 28.568,38.812 18.883,3.105 36.707,-8.686 39.812,-27.569 -3.105,18.883 9.686,36.707 28.569,39.812 18.882,3.104 36.706,-9.686 39.811,-28.568 -3.105,18.882 9.686,35.706 28.569,38.811 16.597,2.729 32.373,-5.826 38.058,-21.001 C 112.388,-56.725 55.298,9.057 0,0"
             style="fill:#e1f3ff;fill-opacity:1;fill-rule:nonzero;stroke:none"
             id="path2167" /></g><g
           id="g2169"
           transform="translate(154.1172,432.0044)"><path
             d="m 0,0 c -0.102,-0.016 -0.204,-0.03 -0.306,-0.046 -18.522,-3.381 -21.331,-80.517 -6.468,-173.386 -0.968,17.442 11.346,33.171 28.975,36.069 18.882,3.105 36.706,-9.686 39.811,-28.568 -0.196,1.189 -0.327,2.373 -0.399,3.551 C 45.981,-69.653 18.641,2.563 0,0"
             style="fill:#fe75a7;fill-opacity:1;fill-rule:nonzero;stroke:none"
             id="path2171" /></g><g
           id="g2173"
           transform="translate(352.8896,288.5591)"><path
             d="m 0,0 c -0.124,0.751 -0.279,1.49 -0.448,2.221 0.132,-0.743 0.273,-1.483 0.395,-2.23 z"
             style="fill:#5ed8f6;fill-opacity:1;fill-rule:nonzero;stroke:none"
             id="path2175" /></g><g
           id="g2177"
           transform="translate(462.9126,428.8779)"><path
             d="m 0,0 c 0,-18.797 -15.238,-34.035 -34.035,-34.035 -18.797,0 -34.034,15.238 -34.034,34.035 0,18.797 15.237,34.035 34.034,34.035 C -15.238,34.035 0,18.797 0,0"
             style="fill:#ffd500;fill-opacity:1;fill-rule:nonzero;stroke:none"
             id="path2179" /></g><g
           id="g2181"
           transform="translate(428.8779,462.9126)"><path
             d="m 0,0 c -7.476,0 -14.385,-2.417 -20,-6.503 8.503,-6.187 14.035,-16.211 14.035,-27.532 0,-11.32 -5.532,-21.344 -14.035,-27.531 5.615,-4.087 12.524,-6.504 20,-6.504 18.797,0 34.035,15.238 34.035,34.035 C 34.035,-15.238 18.797,0 0,0"
             style="fill:#ffc400;fill-opacity:1;fill-rule:nonzero;stroke:none"
             id="path2183" /></g><g
           id="g2185"
           transform="translate(7.5005,184.9883)"><path
             d="M 0,0 H 496.999"
             style="fill:none;stroke:#060606;stroke-width:15;stroke-linecap:round;stroke-linejoin:round;stroke-miterlimit:10;stroke-dasharray:none;stroke-opacity:1"
             id="path2187" /></g><g
           id="g2189"
           transform="translate(352.8896,288.5591)"><path
             d="M 0,0 C -3.105,18.882 -20.929,31.673 -39.812,28.568 -58.694,25.464 -71.485,7.64 -68.38,-11.243 -71.485,7.64 -89.309,20.43 -108.192,17.326 c -18.882,-3.105 -31.673,-20.93 -28.568,-39.812 -3.105,18.882 -20.929,31.673 -39.812,28.569 -18.883,-3.105 -31.673,-20.929 -28.569,-39.812 -3.104,18.883 -20.928,31.673 -39.811,28.568 -18.882,-3.104 -31.673,-20.928 -28.569,-39.811 -3.104,18.883 -20.928,31.673 -39.811,28.569 -18.883,-3.105 -31.673,-20.929 -28.568,-39.812 l -1.16,-0.191 c -15.574,94.719 48.586,184.129 143.305,199.703 C -105.036,158.87 -15.626,94.71 -0.053,-0.009 Z"
             style="fill:none;stroke:#060606;stroke-width:15;stroke-linecap:round;stroke-linejoin:round;stroke-miterlimit:10;stroke-dasharray:none;stroke-opacity:1"
             id="path2191" /></g><g
           id="g2193"
           transform="translate(175.7119,294.542)"><path
             d="M 0,0 28.983,-176.277"
             style="fill:none;stroke:#060606;stroke-width:15;stroke-linecap:round;stroke-linejoin:round;stroke-miterlimit:10;stroke-dasharray:none;stroke-opacity:1"
             id="path2195" /></g><g
           id="g2197"
           transform="translate(77.7998,327.7231)"><path
             d="m 0,0 c -3.706,-24.002 -3.895,-50.648 0.076,-78.305 0.652,-1.867 1.161,-3.812 1.493,-5.831 -3.104,18.883 9.686,36.707 28.569,39.812 18.883,3.104 36.707,-9.686 39.811,-28.569 -3.104,18.883 9.686,36.707 28.569,39.811 18.882,3.105 36.707,-9.686 39.812,-28.568 -3.105,18.882 9.686,36.707 28.568,39.812 16.598,2.729 32.373,-6.826 38.058,-22.002 C 187.789,47.418 130.698,113.199 75.4,104.143 75.384,104.14 75.368,104.138 75.352,104.135 45.459,99.215 22.072,73.405 8.937,36.202"
             style="fill:none;stroke:#060606;stroke-width:15;stroke-linecap:round;stroke-linejoin:round;stroke-miterlimit:10;stroke-dasharray:none;stroke-opacity:1"
             id="path2199" /></g><g
           id="g2201"
           transform="translate(154.1172,432.0044)"><path
             d="m 0,0 c -0.102,-0.016 -0.204,-0.03 -0.306,-0.046 -18.522,-3.381 -21.331,-80.517 -6.468,-173.386 -0.968,17.442 11.346,33.171 28.975,36.069 18.882,3.105 36.706,-9.686 39.811,-28.568 -0.196,1.189 -0.327,2.373 -0.399,3.551 C 45.981,-69.653 18.641,2.563 0,0 Z"
             style="fill:none;stroke:#060606;stroke-width:15;stroke-linecap:round;stroke-linejoin:round;stroke-miterlimit:10;stroke-dasharray:none;stroke-opacity:1"
             id="path2203" /></g><g
           id="g2205"
           transform="translate(352.8896,288.5591)"><path
             d="m 0,0 c -0.124,0.751 -0.279,1.49 -0.448,2.221 0.132,-0.743 0.273,-1.483 0.395,-2.23 z"
             style="fill:none;stroke:#060606;stroke-width:15;stroke-linecap:round;stroke-linejoin:round;stroke-miterlimit:10;stroke-dasharray:none;stroke-opacity:1"
             id="path2207" /></g><g
           id="g2209"
           transform="translate(462.9126,428.8779)"><path
             d="m 0,0 c 0,-18.797 -15.238,-34.035 -34.035,-34.035 -18.797,0 -34.034,15.238 -34.034,34.035 0,18.797 15.237,34.035 34.034,34.035 C -15.238,34.035 0,18.797 0,0 Z"
             style="fill:none;stroke:#060606;stroke-width:15;stroke-linecap:round;stroke-linejoin:round;stroke-miterlimit:10;stroke-dasharray:none;stroke-opacity:1"
             id="path2211" /></g><g
           id="g2213"
           transform="translate(428.8779,504.5)"><path
             d="M 0,0 V -17.758"
             style="fill:none;stroke:#060606;stroke-width:15;stroke-linecap:round;stroke-linejoin:round;stroke-miterlimit:10;stroke-dasharray:none;stroke-opacity:1"
             id="path2215" /></g><g
           id="g2217"
           transform="translate(428.8779,371.0137)"><path
             d="M 0,0 V -17.758"
             style="fill:none;stroke:#060606;stroke-width:15;stroke-linecap:round;stroke-linejoin:round;stroke-miterlimit:10;stroke-dasharray:none;stroke-opacity:1"
             id="path2219" /></g><g
           id="g2221"
           transform="translate(482.3506,482.3506)"><path
             d="M 0,0 -12.557,-12.557"
             style="fill:none;stroke:#060606;stroke-width:15;stroke-linecap:round;stroke-linejoin:round;stroke-miterlimit:10;stroke-dasharray:none;stroke-opacity:1"
             id="path2223" /></g><g
           id="g2225"
           transform="translate(387.9619,387.9619)"><path
             d="M 0,0 -12.557,-12.557"
             style="fill:none;stroke:#060606;stroke-width:15;stroke-linecap:round;stroke-linejoin:round;stroke-miterlimit:10;stroke-dasharray:none;stroke-opacity:1"
             id="path2227" /></g><g
           id="g2229"
           transform="translate(504.5,428.8779)"><path
             d="M 0,0 H -17.758"
             style="fill:none;stroke:#060606;stroke-width:15;stroke-linecap:round;stroke-linejoin:round;stroke-miterlimit:10;stroke-dasharray:none;stroke-opacity:1"
             id="path2231" /></g><g
           id="g2233"
           transform="translate(371.0137,428.8779)"><path
             d="M 0,0 H -17.758"
             style="fill:none;stroke:#060606;stroke-width:15;stroke-linecap:round;stroke-linejoin:round;stroke-miterlimit:10;stroke-dasharray:none;stroke-opacity:1"
             id="path2235" /></g><g
           id="g2237"
           transform="translate(482.3506,375.4048)"><path
             d="M 0,0 -12.557,12.557"
             style="fill:none;stroke:#060606;stroke-width:15;stroke-linecap:round;stroke-linejoin:round;stroke-miterlimit:10;stroke-dasharray:none;stroke-opacity:1"
             id="path2239" /></g><g
           id="g2241"
           transform="translate(387.9619,469.7939)"><path
             d="M 0,0 -12.557,12.557"
             style="fill:none;stroke:#060606;stroke-width:15;stroke-linecap:round;stroke-linejoin:round;stroke-miterlimit:10;stroke-dasharray:none;stroke-opacity:1"
             id="path2243" /></g><g
           id="g2245"
           transform="translate(34.2598,71.3569)"><path
             d="M 0,0 C 9.652,0 9.668,15 0,15 -9.652,15 -9.667,0 0,0"
             style="fill:#060606;fill-opacity:1;fill-rule:nonzero;stroke:none"
             id="path2247" /></g><g
           id="g2249"
           transform="translate(137.8169,29.4922)"><path
             d="M 0,0 C 9.651,0 9.667,15 0,15 -9.652,15 -9.668,0 0,0"
             style="fill:#060606;fill-opacity:1;fill-rule:nonzero;stroke:none"
             id="path2251" /></g><g
           id="g2253"
           transform="translate(163.9092,86.2251)"><path
             d="M 0,0 C 9.651,0 9.667,15 0,15 -9.652,15 -9.668,0 0,0"
             style="fill:#060606;fill-opacity:1;fill-rule:nonzero;stroke:none"
             id="path2255" /></g><g
           id="g2257"
           transform="translate(362.6763)"><path
             d="M 0,0 C 9.652,0 9.667,15 0,15 -9.652,15 -9.668,0 0,0"
             style="fill:#060606;fill-opacity:1;fill-rule:nonzero;stroke:none"
             id="path2259" /></g><g
           id="g2261"
           transform="translate(451.6221,41.7085)"><path
             d="M 0,0 C 9.652,0 9.668,15 0,15 -9.651,15 -9.667,0 0,0"
             style="fill:#060606;fill-opacity:1;fill-rule:nonzero;stroke:none"
             id="path2263" /></g><g
           id="g2265"
           transform="translate(290.832,118.2646)"><path
             d="M 0,0 H 57.717"
             style="fill:none;stroke:#060606;stroke-width:15;stroke-linecap:round;stroke-linejoin:round;stroke-miterlimit:10;stroke-dasharray:none;stroke-opacity:1"
             id="path2267" /></g><g
           id="g2269"
           transform="translate(333.916,148.9326)"><path
             d="M 0,0 H 128.997"
             style="fill:none;stroke:#060606;stroke-width:15;stroke-linecap:round;stroke-linejoin:round;stroke-miterlimit:10;stroke-dasharray:none;stroke-opacity:1"
             id="path2271" /></g><g
           id="g2273"
           transform="translate(408.3364,92.2617)"><path
             d="M 0,0 C 26.974,6.602 62.722,8.499 96.006,-19.435"
             style="fill:none;stroke:#060606;stroke-width:15;stroke-linecap:round;stroke-linejoin:round;stroke-miterlimit:10;stroke-dasharray:none;stroke-opacity:1"
             id="path2275" /></g><g
           id="g2277"
           transform="translate(7.4004,105.75)"><path
             d="m 0,0 c 30.333,41.318 88.599,59.65 137.158,43.156 57.347,-19.481 98.373,-80.6 158.87,-83.584 20.11,-0.992 39.546,4.807 58.706,11.583"
             style="fill:none;stroke:#060606;stroke-width:15;stroke-linecap:round;stroke-linejoin:round;stroke-miterlimit:10;stroke-dasharray:none;stroke-opacity:1"
             id="path2279" /></g></g></g></g></svg>
