<?xml version="1.0" encoding="UTF-8" standalone="no"?>
<!-- Created with Inkscape (http://www.inkscape.org/) -->

<svg
   version="1.1"
   id="svg1356"
   xml:space="preserve"
   width="682.66669"
   height="682.66669"
   viewBox="0 0 682.66669 682.66669"
   xmlns="http://www.w3.org/2000/svg"
   xmlns:svg="http://www.w3.org/2000/svg"><defs
     id="defs1360"><clipPath
       clipPathUnits="userSpaceOnUse"
       id="clipPath1370"><path
         d="M 0,512 H 512 V 0 H 0 Z"
         id="path1368" /></clipPath></defs><g
     id="g1362"
     transform="matrix(1.3333333,0,0,-1.3333333,0,682.66667)"><g
       id="g1364"><g
         id="g1366"
         clip-path="url(#clipPath1370)"><g
           id="g1372"
           transform="translate(7.5005,184.9883)"><path
             d="M 0,0 H 496.999"
             style="fill:none;stroke:#060606;stroke-width:15;stroke-linecap:round;stroke-linejoin:round;stroke-miterlimit:10;stroke-dasharray:none;stroke-opacity:1"
             id="path1374" /></g><g
           id="g1376"
           transform="translate(352.8896,288.5591)"><path
             d="M 0,0 C -3.105,18.882 -20.929,31.673 -39.812,28.568 -58.694,25.464 -71.485,7.64 -68.38,-11.243 -71.485,7.64 -89.309,20.43 -108.192,17.326 c -18.882,-3.105 -31.673,-20.93 -28.568,-39.812 -3.105,18.882 -20.929,31.673 -39.812,28.569 -18.883,-3.105 -31.673,-20.929 -28.569,-39.812 -3.104,18.883 -20.928,31.673 -39.811,28.568 -18.882,-3.104 -31.673,-20.928 -28.569,-39.811 -3.104,18.883 -20.928,31.673 -39.811,28.569 -18.883,-3.105 -31.673,-20.929 -28.568,-39.812 l -1.16,-0.191 c -15.574,94.719 48.586,184.129 143.305,199.703 C -105.036,158.87 -15.626,94.71 -0.053,-0.009 Z"
             style="fill:none;stroke:#060606;stroke-width:15;stroke-linecap:round;stroke-linejoin:round;stroke-miterlimit:10;stroke-dasharray:none;stroke-opacity:1"
             id="path1378" /></g><g
           id="g1380"
           transform="translate(175.7119,294.542)"><path
             d="M 0,0 28.983,-176.277"
             style="fill:none;stroke:#060606;stroke-width:15;stroke-linecap:round;stroke-linejoin:round;stroke-miterlimit:10;stroke-dasharray:none;stroke-opacity:1"
             id="path1382" /></g><g
           id="g1384"
           transform="translate(77.7998,327.7231)"><path
             d="m 0,0 c -3.706,-24.002 -3.895,-50.648 0.076,-78.305 0.652,-1.867 1.161,-3.812 1.493,-5.831 -3.104,18.883 9.686,36.707 28.569,39.812 18.883,3.104 36.707,-9.686 39.811,-28.569 -3.104,18.883 9.686,36.707 28.569,39.811 18.882,3.105 36.707,-9.686 39.812,-28.568 -3.105,18.882 9.686,36.707 28.568,39.812 16.598,2.729 32.373,-6.826 38.058,-22.002 C 187.789,47.418 130.698,113.199 75.4,104.143 75.384,104.14 75.368,104.138 75.352,104.135 45.459,99.215 22.072,73.405 8.937,36.202"
             style="fill:none;stroke:#060606;stroke-width:15;stroke-linecap:round;stroke-linejoin:round;stroke-miterlimit:10;stroke-dasharray:none;stroke-opacity:1"
             id="path1386" /></g><g
           id="g1388"
           transform="translate(154.1172,432.0044)"><path
             d="m 0,0 c -0.102,-0.016 -0.204,-0.03 -0.306,-0.046 -18.522,-3.381 -21.331,-80.517 -6.468,-173.386 -0.968,17.442 11.346,33.171 28.975,36.069 18.882,3.105 36.706,-9.686 39.811,-28.568 -0.196,1.189 -0.327,2.373 -0.399,3.551 C 45.981,-69.653 18.641,2.563 0,0 Z"
             style="fill:none;stroke:#060606;stroke-width:15;stroke-linecap:round;stroke-linejoin:round;stroke-miterlimit:10;stroke-dasharray:none;stroke-opacity:1"
             id="path1390" /></g><g
           id="g1392"
           transform="translate(352.8896,288.5591)"><path
             d="m 0,0 c -0.124,0.751 -0.279,1.49 -0.448,2.221 0.132,-0.743 0.273,-1.483 0.395,-2.23 z"
             style="fill:none;stroke:#060606;stroke-width:15;stroke-linecap:round;stroke-linejoin:round;stroke-miterlimit:10;stroke-dasharray:none;stroke-opacity:1"
             id="path1394" /></g><g
           id="g1396"
           transform="translate(462.9126,428.8779)"><path
             d="m 0,0 c 0,-18.797 -15.238,-34.035 -34.035,-34.035 -18.797,0 -34.034,15.238 -34.034,34.035 0,18.797 15.237,34.035 34.034,34.035 C -15.238,34.035 0,18.797 0,0 Z"
             style="fill:none;stroke:#060606;stroke-width:15;stroke-linecap:round;stroke-linejoin:round;stroke-miterlimit:10;stroke-dasharray:none;stroke-opacity:1"
             id="path1398" /></g><g
           id="g1400"
           transform="translate(428.8779,504.5)"><path
             d="M 0,0 V -17.758"
             style="fill:none;stroke:#060606;stroke-width:15;stroke-linecap:round;stroke-linejoin:round;stroke-miterlimit:10;stroke-dasharray:none;stroke-opacity:1"
             id="path1402" /></g><g
           id="g1404"
           transform="translate(428.8779,371.0137)"><path
             d="M 0,0 V -17.758"
             style="fill:none;stroke:#060606;stroke-width:15;stroke-linecap:round;stroke-linejoin:round;stroke-miterlimit:10;stroke-dasharray:none;stroke-opacity:1"
             id="path1406" /></g><g
           id="g1408"
           transform="translate(482.3506,482.3506)"><path
             d="M 0,0 -12.557,-12.557"
             style="fill:none;stroke:#060606;stroke-width:15;stroke-linecap:round;stroke-linejoin:round;stroke-miterlimit:10;stroke-dasharray:none;stroke-opacity:1"
             id="path1410" /></g><g
           id="g1412"
           transform="translate(387.9619,387.9619)"><path
             d="M 0,0 -12.557,-12.557"
             style="fill:none;stroke:#060606;stroke-width:15;stroke-linecap:round;stroke-linejoin:round;stroke-miterlimit:10;stroke-dasharray:none;stroke-opacity:1"
             id="path1414" /></g><g
           id="g1416"
           transform="translate(504.5,428.8779)"><path
             d="M 0,0 H -17.758"
             style="fill:none;stroke:#060606;stroke-width:15;stroke-linecap:round;stroke-linejoin:round;stroke-miterlimit:10;stroke-dasharray:none;stroke-opacity:1"
             id="path1418" /></g><g
           id="g1420"
           transform="translate(371.0137,428.8779)"><path
             d="M 0,0 H -17.758"
             style="fill:none;stroke:#060606;stroke-width:15;stroke-linecap:round;stroke-linejoin:round;stroke-miterlimit:10;stroke-dasharray:none;stroke-opacity:1"
             id="path1422" /></g><g
           id="g1424"
           transform="translate(482.3506,375.4048)"><path
             d="M 0,0 -12.557,12.557"
             style="fill:none;stroke:#060606;stroke-width:15;stroke-linecap:round;stroke-linejoin:round;stroke-miterlimit:10;stroke-dasharray:none;stroke-opacity:1"
             id="path1426" /></g><g
           id="g1428"
           transform="translate(387.9619,469.7939)"><path
             d="M 0,0 -12.557,12.557"
             style="fill:none;stroke:#060606;stroke-width:15;stroke-linecap:round;stroke-linejoin:round;stroke-miterlimit:10;stroke-dasharray:none;stroke-opacity:1"
             id="path1430" /></g><g
           id="g1432"
           transform="translate(34.2598,71.3569)"><path
             d="M 0,0 C 9.652,0 9.668,15 0,15 -9.652,15 -9.667,0 0,0"
             style="fill:#060606;fill-opacity:1;fill-rule:nonzero;stroke:none"
             id="path1434" /></g><g
           id="g1436"
           transform="translate(137.8169,29.4922)"><path
             d="M 0,0 C 9.651,0 9.667,15 0,15 -9.652,15 -9.668,0 0,0"
             style="fill:#060606;fill-opacity:1;fill-rule:nonzero;stroke:none"
             id="path1438" /></g><g
           id="g1440"
           transform="translate(163.9092,86.2251)"><path
             d="M 0,0 C 9.651,0 9.667,15 0,15 -9.652,15 -9.668,0 0,0"
             style="fill:#060606;fill-opacity:1;fill-rule:nonzero;stroke:none"
             id="path1442" /></g><g
           id="g1444"
           transform="translate(362.6763)"><path
             d="M 0,0 C 9.652,0 9.667,15 0,15 -9.652,15 -9.668,0 0,0"
             style="fill:#060606;fill-opacity:1;fill-rule:nonzero;stroke:none"
             id="path1446" /></g><g
           id="g1448"
           transform="translate(451.6221,41.7085)"><path
             d="M 0,0 C 9.652,0 9.668,15 0,15 -9.651,15 -9.667,0 0,0"
             style="fill:#060606;fill-opacity:1;fill-rule:nonzero;stroke:none"
             id="path1450" /></g><g
           id="g1452"
           transform="translate(290.832,118.2646)"><path
             d="M 0,0 H 57.717"
             style="fill:none;stroke:#060606;stroke-width:15;stroke-linecap:round;stroke-linejoin:round;stroke-miterlimit:10;stroke-dasharray:none;stroke-opacity:1"
             id="path1454" /></g><g
           id="g1456"
           transform="translate(333.916,148.9326)"><path
             d="M 0,0 H 128.997"
             style="fill:none;stroke:#060606;stroke-width:15;stroke-linecap:round;stroke-linejoin:round;stroke-miterlimit:10;stroke-dasharray:none;stroke-opacity:1"
             id="path1458" /></g><g
           id="g1460"
           transform="translate(408.3364,92.2617)"><path
             d="M 0,0 C 26.974,6.602 62.722,8.499 96.006,-19.435"
             style="fill:none;stroke:#060606;stroke-width:15;stroke-linecap:round;stroke-linejoin:round;stroke-miterlimit:10;stroke-dasharray:none;stroke-opacity:1"
             id="path1462" /></g><g
           id="g1464"
           transform="translate(7.4004,105.75)"><path
             d="m 0,0 c 30.333,41.318 88.599,59.65 137.158,43.156 57.347,-19.481 98.373,-80.6 158.87,-83.584 20.11,-0.992 39.546,4.807 58.706,11.583"
             style="fill:none;stroke:#060606;stroke-width:15;stroke-linecap:round;stroke-linejoin:round;stroke-miterlimit:10;stroke-dasharray:none;stroke-opacity:1"
             id="path1466" /></g></g></g></g></svg>
