<svg id="Capa_1" enable-background="new 0 0 512 512" height="512" viewBox="0 0 512 512" width="512" xmlns="http://www.w3.org/2000/svg"><g id="XMLID_1057_"><ellipse id="XMLID_1079_" cx="256" cy="215.369" fill="#c193da" rx="22.535" ry="22.535" transform="matrix(.551 -.834 .834 .551 -64.832 310.165)"/><path id="XMLID_1078_" d="m462 501.997h-412c-22.091 0-40-17.909-40-40v-128c0-22.091 17.909-40 40-40h412c22.091 0 40 17.909 40 40v128c0 22.092-17.909 40-40 40z" fill="#cbf4fb"/><g id="XMLID_1066_"><g id="XMLID_1067_"><g id="XMLID_1070_"><path id="XMLID_1071_" d="m320.524 172.949c-5.768 0-11.534-2.2-15.935-6.6-26.792-26.791-70.386-26.791-97.178 0-8.801 8.8-23.069 8.8-31.869 0-8.801-8.801-8.801-23.069 0-31.869 44.365-44.365 116.552-44.365 160.917 0 8.801 8.8 8.801 23.069 0 31.869-4.401 4.4-10.168 6.6-15.935 6.6z" fill="#c193da"/></g><g id="XMLID_1068_"><path id="XMLID_1069_" d="m385.047 108.425c-5.767 0-11.534-2.2-15.935-6.6-62.371-62.37-163.854-62.37-226.225 0-8.801 8.801-23.069 8.801-31.869 0s-8.801-23.069 0-31.869c79.944-79.944 210.02-79.944 289.964 0 8.801 8.801 8.801 23.069 0 31.869-4.4 4.4-10.167 6.6-15.935 6.6z" fill="#c193da"/></g></g></g><g id="XMLID_356_"><path id="XMLID_357_" d="m261.242 447.997c5.523 0 10-4.477 10-10v-80c0-5.523-4.477-10-10-10s-10 4.477-10 10v80c0 5.523 4.477 10 10 10z"/><path id="XMLID_1031_" d="m337.429 368.29c5.523 0 10-4.477 10-10s-4.477-10-10-10h-32.187c-5.523 0-10 4.477-10 10v79.414c0 5.523 4.477 10 10 10s10-4.477 10-10v-30.459h19.63c5.523 0 10-4.477 10-10s-4.477-10-10-10h-19.63v-18.955z"/><path id="XMLID_1032_" d="m207.434 356.192-9.271 46.579-14.7-47.718c-1.626-5.278-7.222-8.237-12.501-6.612-3.584 1.104-6.094 4.04-6.83 7.463l-14.509 46.875-9.242-46.722c-1.072-5.417-6.328-8.939-11.75-7.87-5.418 1.072-8.941 6.333-7.87 11.75l15.587 78.799c.095.477.224.947.386 1.405 1.671 4.708 6.135 7.855 11.125 7.855h.081c5.022-.035 9.482-3.252 11.097-8.008.029-.086.058-.173.085-.26l14.785-47.767 14.719 47.777c.042.135.086.268.133.401 1.671 4.708 6.135 7.855 11.124 7.855h.081c5.022-.035 9.481-3.252 11.097-8.008.141-.414.254-.836.339-1.265l15.649-78.628c1.078-5.417-2.439-10.682-7.856-11.76-5.42-1.073-10.681 2.443-11.759 7.859z"/><path id="XMLID_1033_" d="m391.429 437.997v-80c0-5.523-4.477-10-10-10s-10 4.477-10 10v80c0 5.523 4.477 10 10 10s10-4.477 10-10z"/><path id="XMLID_1034_" d="m462 283.997h-161c-5.523 0-10 4.477-10 10s4.477 10 10 10h161c16.542 0 30 13.458 30 30v128c0 16.542-13.458 30-30 30h-412c-16.542 0-30-13.458-30-30v-128c0-16.542 13.458-30 30-30h161c5.523 0 10-4.477 10-10s-4.477-10-10-10h-161c-27.57 0-50 22.43-50 50v128c0 27.57 22.43 50 50 50h412c27.57 0 50-22.43 50-50v-128c0-27.57-22.43-50-50-50z"/><path id="XMLID_1038_" d="m320.524 182.949c8.69 0 16.86-3.384 23.006-9.529 6.145-6.145 9.529-14.316 9.529-23.006s-3.384-16.861-9.529-23.006c-48.265-48.264-126.796-48.264-175.059 0-6.145 6.145-9.53 14.315-9.53 23.006s3.384 16.861 9.529 23.006c12.686 12.685 33.326 12.685 46.011 0 22.894-22.892 60.145-22.893 83.037 0 6.146 6.145 14.316 9.529 23.006 9.529zm-64.524-46.689c-20.155 0-40.316 7.674-55.66 23.018-4.888 4.887-12.841 4.888-17.727 0-2.368-2.368-3.672-5.516-3.672-8.864s1.304-6.496 3.672-8.864c40.466-40.466 106.308-40.465 146.775.001 2.368 2.367 3.671 5.515 3.671 8.863s-1.304 6.496-3.671 8.864c-2.368 2.368-5.516 3.671-8.864 3.671s-6.497-1.304-8.864-3.671c-15.348-15.347-35.5-23.018-55.66-23.018z"/><path id="XMLID_1041_" d="m149.958 108.896c58.471-58.471 153.611-58.471 212.083 0 6.146 6.145 14.315 9.529 23.006 9.529 8.69 0 16.861-3.384 23.006-9.53 12.685-12.686 12.685-33.326 0-46.012-83.843-83.842-220.264-83.841-304.106 0-12.685 12.686-12.685 33.326 0 46.012 12.686 12.685 33.326 12.685 46.011.001zm-31.869-31.87c76.044-76.045 199.777-76.043 275.821-.001 4.887 4.888 4.887 12.84 0 17.728-2.368 2.368-5.516 3.672-8.864 3.672s-6.496-1.304-8.864-3.672c-33.138-33.138-76.652-49.701-120.182-49.701-43.519 0-87.053 16.571-120.183 49.701-4.888 4.887-12.84 4.888-17.728 0-4.887-4.887-4.887-12.84 0-17.727z"/><path id="XMLID_1042_" d="m263.07 301.067c1.86-1.86 2.93-4.44 2.93-7.07s-1.07-5.21-2.93-7.07-4.44-2.93-7.07-2.93-5.21 1.07-7.07 2.93-2.93 4.44-2.93 7.07 1.07 5.21 2.93 7.07 4.44 2.93 7.07 2.93 5.21-1.07 7.07-2.93z"/><path id="XMLID_1189_" d="m288.535 215.369c0-17.94-14.595-32.535-32.535-32.535s-32.535 14.595-32.535 32.535 14.595 32.535 32.535 32.535 32.535-14.595 32.535-32.535zm-32.535 12.535c-6.912 0-12.535-5.623-12.535-12.535s5.623-12.535 12.535-12.535 12.535 5.623 12.535 12.535-5.623 12.535-12.535 12.535z"/></g></g></svg>